<svg width="158" height="30" viewBox="0 0 158 30" fill="none" xmlns="http://www.w3.org/2000/svg">
<path d="M67.337 26.9118C58.6339 26.9118 52.8214 23.2534 52.8214 17.9559C52.8214 12.6383 58.6339 9 67.337 9C76.009 9 81.8214 12.6383 81.8214 17.9559C81.8214 23.2534 76.009 26.9118 67.337 26.9118ZM67.337 23.0136C71.5642 23.0136 74.89 21.0345 74.89 17.9559C74.89 14.8573 71.5642 12.8982 67.337 12.8982C63.0787 12.8982 59.7839 14.8573 59.7839 17.9559C59.7839 21.0345 63.0787 23.0136 67.337 23.0136Z" fill="#F2F2F2"/>
<path d="M96.5155 26.9118C87.8124 26.9118 82 23.2534 82 17.9559C82 12.6383 87.8124 9 96.5155 9C105.188 9 111 12.6383 111 17.9559C111 23.2534 105.188 26.9118 96.5155 26.9118ZM96.5155 23.0136C100.743 23.0136 104.069 21.0345 104.069 17.9559C104.069 14.8573 100.743 12.8982 96.5155 12.8982C92.2572 12.8982 88.9625 14.8573 88.9625 17.9559C88.9625 21.0345 92.2572 23.0136 96.5155 23.0136Z" fill="#F2F2F2"/>
<path d="M8.84794 27.5885C3.21552 27.5885 0.35728 25.676 0.42033 21.3886H4.70769C4.81277 22.8808 6.07376 23.8475 8.84794 23.8475C11.412 23.8685 12.736 23.0489 12.736 21.851C12.736 20.8422 11.9794 20.2327 10.0038 19.9174L7.79712 19.5391C4.43448 18.9717 0.882692 18.2361 0.882692 14.1799C0.882692 10.7963 3.71992 8.75769 8.86896 8.75769C13.6397 8.75769 16.9393 10.2919 16.9393 14.8945H12.694C12.4418 13.4444 11.2859 12.4776 8.78489 12.4776C6.53613 12.4776 5.44327 13.2342 5.44327 14.3901C5.44327 15.2938 6.1158 15.9453 7.75508 16.2185L9.66758 16.5548C13.0723 17.1643 17.4437 17.5846 17.4437 21.9981C17.4437 25.6339 14.5224 27.6095 8.84794 27.5885ZM32.5959 27L31.6081 24.2468H23.2856L22.2978 27H17.401L24.1263 9.34615H30.7675L37.4927 27H32.5959ZM24.5466 20.6951H30.3471L27.8882 13.8016H27.0265L24.5466 20.6951ZM38.5472 27V9.34615H43.2969V23.0279H53.2167V27H38.5472Z" fill="#F2F2F2"/>
<path d="M111.841 27V9.34615H117.872L121.739 20.9473H122.097L125.964 9.34615H131.995V27H127.456V17.3114H127.057L123.736 27H120.1L116.78 17.3114H116.38V27H111.841ZM141.694 27.5885C136.061 27.5885 133.203 25.676 133.266 21.3886H137.553C137.658 22.8808 138.919 23.8475 141.694 23.8475C144.258 23.8685 145.582 23.0489 145.582 21.851C145.582 20.8422 144.825 20.2327 142.849 19.9174L140.643 19.5391C137.28 18.9717 133.728 18.2361 133.728 14.1799C133.728 10.7963 136.566 8.75769 141.715 8.75769C146.485 8.75769 149.785 10.2919 149.785 14.8945H145.54C145.287 13.4444 144.132 12.4776 141.631 12.4776C139.382 12.4776 138.289 13.2342 138.289 14.3901C138.289 15.2938 138.961 15.9453 140.601 16.2185L142.513 16.5548C145.918 17.1643 150.289 17.5846 150.289 21.9981C150.289 25.6339 147.368 27.6095 141.694 27.5885ZM154.033 27.3363C152.688 27.3363 151.574 26.2224 151.574 24.8984C151.574 23.5743 152.688 22.4815 154.033 22.4815C155.378 22.4815 156.492 23.5743 156.492 24.8984C156.492 26.2224 155.378 27.3363 154.033 27.3363Z" fill="#F2F2F2"/>
</svg>
