<svg width="151" height="20" viewBox="0 0 151 20" fill="none" xmlns="http://www.w3.org/2000/svg">
<path d="M67.337 18.9118C58.6339 18.9118 52.8214 15.2534 52.8214 9.95588C52.8214 4.63833 58.6339 1 67.337 1C76.009 1 81.8214 4.63833 81.8214 9.95588C81.8214 15.2534 76.009 18.9118 67.337 18.9118ZM67.337 15.0136C71.5642 15.0136 74.89 13.0345 74.89 9.95588C74.89 6.85731 71.5642 4.89821 67.337 4.89821C63.0787 4.89821 59.7839 6.85731 59.7839 9.95588C59.7839 13.0345 63.0787 15.0136 67.337 15.0136Z" fill="white"/>
<path d="M96.5155 18.9118C87.8124 18.9118 82 15.2534 82 9.95588C82 4.63833 87.8124 1 96.5155 1C105.188 1 111 4.63833 111 9.95588C111 15.2534 105.188 18.9118 96.5155 18.9118ZM96.5155 15.0136C100.743 15.0136 104.069 13.0345 104.069 9.95588C104.069 6.85731 100.743 4.89821 96.5155 4.89821C92.2572 4.89821 88.9625 6.85731 88.9625 9.95588C88.9625 13.0345 92.2572 15.0136 96.5155 15.0136Z" fill="white"/>
<path d="M8.84794 19.5885C3.21552 19.5885 0.357283 17.676 0.420332 13.3886H4.7077C4.81278 14.8808 6.07377 15.8475 8.84794 15.8475C11.412 15.8685 12.736 15.0489 12.736 13.851C12.736 12.8422 11.9794 12.2327 10.0038 11.9174L7.79712 11.5391C4.43448 10.9717 0.882695 10.2361 0.882695 6.17995C0.882695 2.79629 3.71992 0.757692 8.86896 0.757692C13.6397 0.757692 16.9393 2.2919 16.9393 6.89451H12.694C12.4418 5.44437 11.2859 4.47761 8.78489 4.47761C6.53613 4.47761 5.44327 5.2342 5.44327 6.39011C5.44327 7.29382 6.1158 7.94533 7.75508 8.21854L9.66759 8.55481C13.0723 9.16429 17.4437 9.58462 17.4437 13.9981C17.4437 17.6339 14.5224 19.6095 8.84794 19.5885Z" fill="white"/>
<path d="M32.5959 19L31.6081 16.2468H23.2856L22.2978 19H17.401L24.1263 1.34615H30.7675L37.4928 19H32.5959ZM24.5466 12.6951H30.3471L27.8882 5.80165H27.0265L24.5466 12.6951Z" fill="white"/>
<path d="M38.5472 19V1.34615H43.2969V15.0279H53.2167V19H38.5472Z" fill="white"/>
<path d="M111.841 19V1.34615H117.872L121.739 12.9473H122.097L125.964 1.34615H131.995V19H127.456V9.3114H127.057L123.736 19H120.1L116.78 9.3114H116.38V19H111.841Z" fill="white"/>
<path d="M141.694 19.5885C136.061 19.5885 133.203 17.676 133.266 13.3886H137.553C137.658 14.8808 138.919 15.8475 141.694 15.8475C144.258 15.8685 145.582 15.0489 145.582 13.851C145.582 12.8422 144.825 12.2327 142.85 11.9174L140.643 11.5391C137.28 10.9717 133.728 10.2361 133.728 6.17995C133.728 2.79629 136.566 0.757692 141.715 0.757692C146.485 0.757692 149.785 2.2919 149.785 6.89451H145.54C145.287 5.44437 144.132 4.47761 141.631 4.47761C139.382 4.47761 138.289 5.2342 138.289 6.39011C138.289 7.29382 138.961 7.94533 140.601 8.21854L142.513 8.55481C145.918 9.16429 150.289 9.58462 150.289 13.9981C150.289 17.6339 147.368 19.6095 141.694 19.5885Z" fill="white"/>
</svg>
